Patient4_TMGait_0pt5_01_right_39_EMG.mot
version=1
nRows=33
nColumns=33
inDegrees=no
endheader
time	1LAddLong	2LGlutMax	3LGlutMed	4LIliopsoas	5LSemiMemb	6LBicFemLong	7LRecFem	8LVastMed	9LVastLat	10LGasMed	11LTibAnt	12lTibPost	13LPeroneusLong	14LSol	15LExtDigLong	16LFlexDigLong	17RAddLong	18RGlutMax	19RGlutMed	20RIliopsoas	21RSemiMemb	22RBicFemLong	23RRecFem	24RVastMed	25RVastLat	26RGasMed	27RTibAnt	28RTibPost	29RPeroneusLong	30RSol	31RExtDigLong	32RFlexDigLong
51.32	-0.031738	0.056305	0.034943	0.006561	-0.14938	0.53848	-0.007935	0.004272	-0.031738	-0.003815	0.052795	0.003052	-0.43854	-0.16327	0.070343	-0.002747	0.063629	-0.023651	-0.018768	0.054169	0.030212	-0.063477	0.053864	-0.13397	-0.050201	-0.007324	0.18875	-0.007019	0.017395	0.04303	-0.009003	-0.009766
51.321	-0.010376	0.015869	-0.019989	0.007629	-0.057068	0.4303	-0.005341	0.006409	-0.027466	-0.043945	0.066223	-0.001678	-0.23789	-0.11917	0.094452	-0.009613	0.033112	-0.045471	0.049133	0.064392	0.016022	-0.068359	-0.089874	-0.1535	-0.055695	-0.016479	0.24933	-0.006561	-0.15945	0.11276	-0.002136	-0.001221
51.322	0.005646	0.044708	-0.01709	-0.003967	0.002441	-0.10788	0.020294	0.003967	-0.030823	-0.027161	0.053101	0.006866	-0.32791	0.021667	0.077972	-0.00351	0.003052	-0.020905	0.17395	0.046692	0.013885	-0.074615	-0.2684	-0.13718	-0.044556	-0.01709	0.13001	-0.004425	-0.16724	0.080566	-0.004883	-0.002899
51.323	0.015564	0.061798	0.021362	0.00885	0.087128	-0.81207	0.041962	0.002594	-0.048981	0.003204	0.031281	0.000153	-0.15823	0.038757	0.014801	-0.006256	0.000916	-0.0383	0.18051	-0.013885	0.026398	-0.078735	-0.16724	-0.056915	-0.029449	-0.011444	0.050964	-0.002899	-0.11963	-0.061493	-0.001526	0.003052
51.324	0.022736	0.065613	0.015564	0.011292	0.10269	-0.66101	0.031891	-0.008087	-0.060883	0.022278	0.027161	0.000458	0.013123	0.052643	0.035706	0.00885	-0.017242	-0.028229	0.20172	-0.063477	0.022736	-0.066986	-0.1503	-0.084534	-0.047302	-0.002441	-0.11276	-0.002441	-0.015717	-0.0914	-0.00824	-0.010834
51.325	0.016022	0.068665	0.017242	-0.002899	0.11093	-0.31082	-0.020447	-0.007172	-0.053101	-0.013733	0.017548	-0.006409	-0.24109	0.056458	0.018463	0.006409	-0.0177	-0.027618	0.055695	-0.073242	0.025787	-0.049744	-0.048065	-0.097046	-0.018005	0.000153	0.17166	-0.004425	-0.032806	-0.10635	-0.002899	-0.008545
51.326	0.011444	0.039368	0.03891	-0.00412	0.081635	-0.11047	-0.040283	-0.002441	-0.041504	-0.094147	0.000305	-0.006714	-0.040894	-0.043335	-0.029907	0.001526	-0.017548	-0.090942	0.17975	-0.06424	0.034485	-0.038757	-0.049286	-0.055542	-0.03479	-0.006409	0.30365	-0.003815	-0.087738	-0.090942	-0.002899	-0.010986
51.327	0.010681	0.030975	0.00885	0.003204	0.045166	-0.11795	-0.046234	0.00946	-0.032806	-0.078125	-0.010071	0.003815	-0.097809	-0.30975	-0.076447	0.005798	-0.010223	-0.047455	0.14633	-0.026855	0.037689	-0.021667	-0.080261	-0.085449	-0.031281	-0.012512	0.1622	-0.004425	-0.070953	-0.038452	-0.00412	-0.00824
51.328	0.003815	0.072937	-0.062714	0.002747	0.028381	-0.15778	-0.043335	0.00351	-0.033112	-0.084839	-0.019379	-0.004578	-0.22293	-0.40131	-0.075531	-0.008087	-0.010986	-0.011444	0.327	-0.027924	0.038757	-0.029144	-0.022888	-0.048828	-0.041504	-0.013885	0.15411	-0.007629	-0.034485	0.030823	0.002441	-0.010681
51.329	0.005646	0.093689	-0.050964	0.013275	0.033569	-0.1506	0.01709	0.00061	-0.001678	0.034943	-0.029602	0.002136	-0.027161	-0.28641	0.004425	0.002747	-0.016174	0.015106	0.31265	-0.00351	0.033112	-0.017242	-0.12375	-0.013885	-0.030365	-0.006104	-0.1796	-0.004578	0.019531	0.034637	-0.001831	-0.009918
51.33	0.002899	0.089417	-0.031738	0.009766	0.029297	-0.098724	0.13321	0.001831	0.037537	0.13382	-0.026398	-0.009766	0.15595	0.064697	0.066071	-0.004578	-0.004883	-0.048828	0.24155	0.000916	0.032959	-0.024872	-0.09552	-0.017548	-0.013885	-0.002747	-0.4068	-0.003052	0.013733	0.009155	-0.003052	-0.009003
51.331	-0.005493	0.08255	0.008392	0.003052	0.025177	-0.06958	0.17105	-0.000763	-0.02533	0.15564	-0.008698	0.00473	0.62988	0.11749	0.037994	-0.000305	-0.004272	-0.075073	-0.019226	0.046539	0.042114	0.006256	-0.046692	-0.003052	0.01297	-0.013275	-0.26825	-0.005188	-0.089569	-0.018768	-0.003204	-0.00946
51.332	-0.014343	0.042877	0.036774	-0.003967	0.023499	0.001984	0.15366	0.002441	0.052795	0.27115	0.009308	0.016327	0.31998	-0.17319	0.052795	-0.007172	-0.006714	-0.09613	-0.00946	0.007935	0.036621	0.001678	-0.008392	-0.040283	0.013123	-0.012207	-0.25391	-0.007019	-0.18448	0.032654	-0.001221	-0.003662
51.333	-0.011902	0.020752	0.031891	0.016479	0.02594	0.15228	0.10056	0.006256	0.078278	0.055237	0.008087	0.036926	-0.29312	-0.15076	0.039215	-0.014496	-0.00061	-0.089874	0.17075	-0.019379	0.031281	0.000763	0.040588	-0.048828	-0.012665	-0.004883	0.011292	-0.005035	-0.15427	0.086517	-0.002899	-0.002594
51.334	-0.011139	0.015411	-0.048981	0.020905	0.001831	0.23605	0.05188	-0.002899	0.06073	-0.098114	0.002136	0.046692	-0.7193	0.017548	0.003967	-0.005646	-0.002899	-0.001068	0.34759	-0.061951	0.03067	0.00351	0.1387	-0.063324	-0.000458	0.005188	0.53818	-0.003662	-0.035858	0.062866	-0.003662	-0.010223
51.335	-0.000153	0.039368	-0.052032	0.006561	0.001831	0.26398	0.037994	-0.00061	0.00885	-0.059509	-0.014496	0.035553	-0.64163	-0.018616	-0.14114	-0.003204	-0.00412	-0.007477	0.35996	-0.015259	0.025177	-0.000153	0.2005	-0.017548	-0.007019	0.000458	0.32501	-0.007477	0.026093	-0.024261	-0.000305	-0.003662
51.336	-0.001984	0.021667	-0.20386	0.006866	-0.00824	0.31021	0.027924	0.003357	-0.034027	0.005798	-0.032349	0.004883	0.22186	-0.057068	-0.11398	-0.011444	0.001068	-0.0383	0.26306	0.003052	0.029144	0.006561	0.22827	-0.068054	-0.000458	-0.004425	-0.047302	-0.007782	0.020294	0.042419	0.000458	-0.002136
51.337	0.001831	0.020294	-0.22492	0.003967	-0.025635	0.088806	-0.046082	-0.015106	-0.066986	0.028076	-0.048065	0.001526	0.38589	-0.039063	-0.004425	-0.00412	-0.007019	-0.070648	0.083771	0.009308	0.033112	0.012665	0.14984	-0.069122	0.006866	-0.003967	-0.020142	-0.009003	0.1004	0.11475	-0.002441	-0.010681
51.338	0.007019	-0.029755	-0.14267	0.011749	-0.021362	0.060272	0.017853	-0.018005	-0.045166	0.051422	-0.072784	0.002136	0.20798	-0.094604	0.007019	-0.005493	0.005341	-0.033112	0.1207	-0.029602	0.03006	0.018616	0.077515	-0.11459	0.000153	-0.001678	0.21194	-0.009918	0.13763	-0.001984	-0.003052	-0.014801
51.339	-0.004883	-0.12466	0.083008	0.024261	-0.002289	-0.054321	0.013733	-0.026245	-0.021667	0.034332	-0.12619	0.00412	0.12482	-0.054169	-0.00885	0.000153	0.007629	-0.053711	0.31616	-0.024872	0.025787	0.015106	0.12177	-0.14267	-0.005035	0.007629	0.51056	-0.005951	-0.42007	-0.05722	-0.00061	-0.002899
51.34	-0.009613	-0.13107	-0.054169	-0.004272	-0.043793	-0.12833	0.027008	-0.009003	-0.007782	-0.001373	-0.13733	0.002594	0.10483	0.12787	0.033875	0.002594	0.000153	-0.068359	0.15564	0.028229	0.024109	0.017395	0.025635	-0.12894	-0.000763	0.00412	0.43503	-0.010834	-0.38849	-0.035706	-0.001831	-0.00351
51.341	-0.007629	-0.084839	-0.000458	0.004272	-0.059204	-0.18387	0.031281	-0.000458	0.027618	0.084076	-0.077972	0.005188	0.44388	0.21454	0.12512	-0.011139	0.001678	-0.06546	0.27817	0.066071	0.024414	0.031281	-0.099182	-0.13077	-0.001221	0.001526	0.13947	-0.005646	0.05127	-0.0177	-0.001984	-0.003052
51.342	-0.011749	-0.041046	0.060272	-0.000305	-0.059052	-0.083313	0.025024	-0.008545	0.037842	0.065613	0.015869	0.004272	0.2713	0.14832	0.24155	0.001373	0.001831	-0.087585	0.49942	0.10346	0.043793	0.00946	-0.068665	-0.13962	0.00412	-0.00824	-0.25696	-0.003815	0.075073	0.039368	-0.000458	-0.009766
51.343	0.000305	-0.031128	0.042877	0.004883	-0.039368	0.065765	0.034637	-0.003662	0.016174	0.05249	0.02533	0.003357	-0.22797	0.11261	0.20767	-0.012512	0.000458	-0.11078	0.50949	0.085602	0.036621	0.016479	-0.10162	-0.16357	-0.011597	-0.014954	-0.54138	-0.01358	-0.019379	0.063782	-0.000153	-0.010529
51.344	0.004425	-0.005341	0.055847	-0.00473	-0.036469	0.15671	0.056458	-0.009766	0.015564	0.053253	0.11017	0.001526	-0.4216	0.14191	0.1384	0.006714	0.007324	-0.09613	0.16205	0.070648	0.029907	0.003357	-0.060272	-0.18784	-0.029907	-0.014343	-0.23727	-0.000305	-0.077972	0.08255	0.002594	-0.003662
51.345	0.010986	-0.000153	-0.021515	0.005341	-0.018768	0.22476	0.083923	-0.008392	0.038147	0.040131	0.084991	0.002441	-0.37323	0.20889	0.56076	0.010529	0.005493	-0.12039	-0.18082	0.071411	0.026245	0.002441	0.084534	-0.15152	-0.045929	-0.01297	-0.11231	-0.007019	-0.10941	0.03006	-0.000916	-0.001984
51.346	0.011139	0.021362	-0.062561	0.006866	0.08606	0.11673	0.12238	-0.003662	0.017853	0.006256	0.14023	0.003815	-0.13473	0.24796	-0.1889	0.002594	0.014496	-0.12024	-0.23987	0.032349	0.01236	-0.013428	0.12665	-0.12802	-0.052948	-0.004272	-0.062866	-0.009918	-0.098114	0.005035	0.001068	-0.002441
51.347	0.019989	0.028381	-0.053406	0.008087	0.11536	-0.015564	0.15045	-0.002441	0.005035	-0.006561	0.18799	0.012512	-0.080261	0.12482	-0.22263	0.005798	0.007629	-0.11993	-0.039825	-0.027771	0.017242	-0.005035	0.065308	-0.081482	-0.031128	-0.005341	0.21851	-0.001831	-0.12528	-0.024567	0.002441	-0.006256
51.348	0.008698	0.056458	0.042267	-0.002289	0.06485	0.083466	0.12772	0.010223	0.00946	-0.012512	0.26504	0.008392	0.29526	0.063629	-0.33356	-0.014648	0.014038	-0.083923	0.030518	-0.032959	0.020447	0.016937	0.063019	-0.091095	-0.021057	-0.011902	0.23148	-0.006866	-0.13718	-0.071106	-0.002136	-0.009308
51.349	0.009766	0.06897	0.12894	-0.014496	0.019073	-0.14618	0.084839	0.007935	0.022278	0.015411	0.18936	0.006256	0.19516	0.065765	-0.47638	-0.007782	0.013733	-0.071106	0.15747	0.00351	0.023041	0.016174	0.001373	-0.097046	-0.017242	-0.011749	-0.1152	-0.010529	-0.058289	-0.046082	0.001221	-0.009613
51.35	0.010529	0.041199	0.15472	0.01358	0.017853	-0.15137	0.024261	0.011292	-0.019531	0.052338	-0.11765	0.008392	-0.17624	0.076599	0.010681	-0.006409	0.008392	-0.11749	0.010071	0.008698	0.018768	0.012054	0.018463	-0.11322	-0.022583	-0.007172	-0.53772	-0.013275	0.051422	-0.053711	-0.002594	-0.008545
51.351	0.008392	0.040283	0.12421	0.00885	0.033264	-0.066071	-0.025177	0.015869	-0.078278	0.06958	-0.14969	0.007629	-0.11002	0.08316	-0.15243	0.003662	-0.005035	-0.08255	0.36285	-0.061951	0.02182	0.031891	-0.025482	-0.10071	-0.018005	-0.005493	-0.40329	-0.008545	-0.00412	-0.064545	-0.002441	-0.002747
51.352	-0.001526	0.03952	0.027466	0.016632	0.048065	0.030212	-0.05722	0.01709	-0.081177	0.021973	-0.090027	0.007782	-0.093384	0.071411	-0.050354	-0.014343	-0.002136	-0.011444	0.41794	-0.076447	0.029449	0.040894	-0.14984	-0.071716	-0.008087	-0.011749	-0.020599	-0.009308	-0.13672	-0.004272	-0.007019	-0.001831
